<?xml version="1.0" standalone="no"?>
<!DOCTYPE svg PUBLIC "-//W3C//DTD SVG 20010904//EN" "http://www.w3.org/TR/2001/REC-SVG-20010904/DTD/svg10.dtd">
<svg version="1.0" xmlns="http://www.w3.org/2000/svg"
	width="96px" height="96px" viewBox="0 0 794 794"
	preserveAspectRatio="xMidYMid meet">

	<g transform="translate(0.000000,794.000000) scale(0.100000,-0.100000)"
		fill="#ffff" stroke="none">
		<path
			d="M3680 5780 c-290 -40 -545 -147 -788 -331 l-65 -49 -236 0 c-364 0
-684 -26 -1080 -86 -213 -32 -238 -39 -278 -79 -26 -26 -33 -41 -33 -71 0 -55
64 -114 156 -144 108 -35 147 -63 310 -221 263 -254 477 -374 784 -443 l105
-23 2 -59 c1 -33 9 -79 18 -103 21 -59 94 -159 149 -205 25 -20 49 -48 52 -60
7 -29 -44 -129 -81 -158 -77 -60 -76 -177 2 -293 37 -56 38 -64 19 -157 -13
-63 -11 -102 9 -151 9 -21 56 -47 85 -47 12 0 36 -16 54 -35 24 -26 42 -35 65
-35 36 0 38 -10 15 -66 -9 -22 -23 -85 -30 -142 -8 -57 -23 -124 -34 -149 -11
-25 -20 -52 -20 -60 0 -23 31 -63 61 -79 31 -16 213 -45 409 -66 265 -27 866
-10 1325 37 148 16 168 23 209 78 25 34 30 153 10 272 -14 91 -23 434 -11 452
5 8 24 10 56 6 104 -12 217 50 266 146 13 26 29 76 35 111 13 73 27 102 76
167 25 33 34 54 34 84 0 40 -10 55 -69 102 -17 14 -21 25 -17 43 3 13 9 34 12
47 3 15 -2 32 -15 48 -17 21 -27 24 -75 23 -31 -1 -56 1 -56 4 0 3 11 24 24
46 13 23 29 60 35 83 18 67 61 152 79 157 9 3 97 21 195 40 363 73 553 155
811 350 80 59 146 96 298 164 111 50 114 175 5 221 -23 10 -91 24 -152 31
-182 20 -346 49 -625 111 -340 75 -521 106 -690 120 -74 6 -151 15 -171 20
-20 5 -73 36 -119 69 -164 119 -395 218 -608 261 -111 23 -406 33 -512 19z
m335 -70 c312 -30 528 -115 832 -328 39 -27 50 -29 160 -35 132 -6 340 -40
573 -93 487 -111 617 -135 823 -154 111 -10 147 -21 147 -44 0 -22 -57 -64
-101 -76 -38 -10 -42 -9 -74 19 -48 42 -90 47 -245 28 -149 -18 -227 -14 -455
24 -160 27 -356 35 -437 19 -123 -24 -203 -86 -229 -177 -10 -36 -9 -66 2
-161 8 -64 13 -133 11 -152 -6 -92 -91 -178 -216 -219 -58 -20 -485 -97 -592
-108 -46 -5 -56 -2 -103 30 -61 42 -75 44 -316 51 -198 6 -328 23 -640 87
-110 22 -246 44 -303 48 -74 4 -106 10 -113 21 -6 9 -7 69 -3 156 6 127 4 149
-14 211 -36 116 -114 183 -272 231 -123 38 -230 44 -402 25 -84 -10 -202 -18
-263 -18 -99 0 -122 4 -233 39 -91 28 -141 39 -190 39 -229 0 312 93 773 132
99 9 305 18 457 22 l278 6 75 58 c232 178 518 290 810 318 125 12 147 12 260
1z m-2470 -600 c157 -48 255 -56 426 -35 163 21 300 23 374 6 232 -55 374
-259 350 -502 -8 -74 -29 -117 -78 -153 -25 -18 -32 -19 -85 -8 -105 22 -326
93 -409 132 -122 57 -212 124 -379 281 -167 157 -247 216 -349 257 -91 38 -95
52 -12 52 43 0 96 -10 162 -30z m4195 -95 c138 -24 172 -26 305 -21 83 3 177
8 210 12 52 5 64 3 88 -16 15 -12 27 -25 27 -30 0 -11 -347 -248 -430 -293
-146 -80 -359 -144 -636 -193 -138 -24 -156 -25 -200 -12 l-49 14 3 79 c2 44
-2 104 -7 133 -26 133 66 276 211 328 112 41 239 40 478 -1z m-2595 -674 c294
-60 443 -80 648 -88 114 -4 157 -9 157 -18 0 -7 -11 -42 -25 -78 -32 -87 -64
-212 -79 -316 l-12 -85 -39 -9 c-127 -28 -552 35 -756 112 -138 52 -268 161
-319 266 -78 160 -29 265 125 265 33 0 168 -22 300 -49z m1976 28 c22 -22 20
-43 -14 -98 -92 -153 -280 -295 -612 -466 -137 -70 -371 -170 -492 -211 -74
-24 -87 -26 -122 -15 -50 14 -103 66 -99 95 2 17 11 22 45 24 35 3 44 7 48 25
3 12 12 52 20 90 21 94 90 285 111 308 9 10 31 21 48 24 17 2 164 25 326 50
415 65 506 88 625 163 58 37 87 40 116 11z m50 -349 c26 -15 24 -56 -6 -105
-37 -59 -34 -67 24 -59 45 6 50 4 66 -20 16 -24 16 -28 1 -50 -23 -36 -118
-69 -196 -70 l-65 -1 1 73 c3 113 60 217 129 235 11 2 21 5 23 6 2 0 12 -4 23
-9z m-237 -106 c12 -12 16 -37 16 -104 0 -49 -4 -92 -10 -95 -11 -7 -12 -146
-1 -185 4 -14 14 -26 23 -28 14 -3 15 1 6 31 -14 47 5 84 62 119 92 57 146 44
143 -34 -2 -57 -25 -109 -70 -159 -54 -60 -105 -83 -183 -84 -59 0 -70 3 -115
35 -65 47 -81 78 -95 178 -10 76 -9 90 10 153 27 87 54 120 132 158 34 17 62
31 64 31 1 0 10 -7 18 -16z m-1882 -120 c169 -54 239 -70 333 -79 137 -12 167
-17 184 -34 16 -16 17 -38 12 -217 -7 -258 -7 -726 -1 -834 l5 -85 -55 -3
c-65 -4 -270 13 -425 34 -111 16 -157 35 -163 68 -2 10 41 60 115 132 68 66
98 100 71 80 -52 -38 -111 -61 -133 -52 -23 9 -18 71 11 128 15 29 32 86 40
127 7 42 25 114 39 161 73 239 70 307 -5 99 -28 -78 -44 -97 -67 -82 -10 7
-48 30 -84 52 -83 51 -132 104 -175 194 -43 91 -47 161 -10 196 31 30 57 24
114 -25 24 -20 45 -35 47 -32 2 2 -18 32 -45 68 -28 35 -50 70 -50 77 0 38 38
71 82 72 10 1 82 -20 160 -45z m1621 -27 c10 -28 -84 -240 -135 -303 -52 -64
-51 -63 -26 -57 13 4 49 33 81 66 32 32 61 57 63 54 3 -3 8 -30 11 -61 10 -92
-11 -168 -88 -318 -38 -76 -65 -138 -60 -138 5 0 27 20 49 45 35 40 118 209
143 292 10 34 35 49 54 33 25 -21 37 -146 34 -348 -2 -108 0 -236 5 -283 9
-86 9 -86 -20 -118 -29 -32 -29 -32 -184 -46 -85 -8 -239 -24 -343 -37 -164
-19 -189 -20 -201 -8 -16 17 -56 183 -83 345 -25 152 -26 558 -2 595 13 20 42
32 150 63 135 38 391 149 480 208 49 32 64 35 72 16z m-964 -160 c36 -54 62
-71 134 -92 30 -9 60 -21 65 -28 6 -8 6 -42 0 -92 -13 -107 -3 -407 18 -525 9
-52 29 -147 45 -210 25 -99 27 -117 15 -126 -9 -6 -78 -11 -169 -12 -139 -1
-156 0 -171 17 -15 16 -17 59 -22 352 -6 309 6 725 21 749 13 20 35 9 64 -33z
m-860 -326 c25 -35 28 -97 4 -123 -36 -40 -83 -8 -83 58 0 91 38 122 79 65z
m132 -118 c6 -16 5 -31 -1 -44 -11 -20 -52 -35 -69 -24 -18 10 -12 60 9 83 24
25 48 19 61 -15z" />
		<path d="M3865 5390 c-10 -17 24 -242 39 -257 10 -10 7 214 -4 241 -10 27 -24
33 -35 16z" />
		<path
			d="M3576 5331 c-3 -5 15 -22 41 -37 27 -15 77 -55 112 -88 53 -51 61
-56 48 -30 -43 84 -180 190 -201 155z" />
		<path
			d="M4129 5320 c-37 -19 -98 -82 -119 -120 -7 -13 15 1 54 34 36 30 79
62 96 71 30 16 40 35 18 35 -7 -1 -29 -9 -49 -20z" />
		<path
			d="M4388 5129 c-59 -14 -150 -64 -187 -103 -49 -51 -32 -55 31 -7 80 60
141 83 236 90 45 3 83 11 85 16 3 13 -117 16 -165 4z" />
		<path
			d="M3223 5124 c-29 -13 -9 -21 61 -27 86 -8 167 -35 225 -77 41 -30 61
-37 61 -21 0 15 -102 80 -159 102 -54 20 -165 34 -188 23z" />
		<path
			d="M4370 5041 c-128 -40 -230 -164 -246 -303 l-7 -56 41 -27 c113 -75
288 -98 423 -56 75 24 180 88 204 125 15 23 15 30 1 78 -31 107 -115 198 -215
233 -46 16 -158 19 -201 6z m46 -116 c11 -27 -6 -64 -36 -80 -81 -42 -136 13
-69 69 35 30 96 36 105 11z" />
		<path
			d="M3163 5006 c-56 -18 -100 -47 -145 -93 -42 -44 -108 -150 -108 -175
0 -24 94 -102 164 -137 83 -40 159 -55 252 -49 91 6 180 35 242 78 23 16 49
30 57 30 18 0 18 11 1 75 -30 115 -105 207 -206 254 -66 31 -189 39 -257 17z
m71 -88 c8 -13 6 -24 -10 -45 -25 -33 -62 -48 -96 -40 -43 11 -44 38 -3 75 40
37 89 41 109 10z" />
		<path
			d="M3834 4694 c-45 -19 -105 -94 -76 -94 4 0 23 16 42 35 19 19 48 37
66 41 36 7 87 -15 107 -46 12 -20 37 -28 37 -12 0 16 -32 53 -58 66 -42 21
-84 25 -118 10z" />
		<path
			d="M3710 4461 c0 -6 19 -21 43 -33 60 -33 220 -33 290 -1 67 31 62 48
-10 37 -74 -11 -248 -12 -290 -1 -22 6 -33 5 -33 -2z" />
	</g>
</svg>